<svg xmlns="http://www.w3.org/2000/svg" enable-background="new 0 0 512 512" viewBox="0 0 512 512"><path fill="#636677" d="M87.285 130.419c-33.099 44.91-51.142 101.087-51.142 160.388 0 .935.138 1.835.378 2.693 1.861-19.066 10.587-36.102 23.614-48.547 6.603-37.44 21.127-71.607 41.464-100.076C95.458 141.682 90.531 136.619 87.285 130.419zM475.48 293.5c.24-.858.378-1.759.378-2.693 0-59.3-18.042-115.476-51.14-160.386-3.246 6.201-8.172 11.264-14.312 14.46 20.336 28.467 34.858 62.633 41.461 100.072C464.893 257.398 473.619 274.434 475.48 293.5z"/><path fill="#988fc4" d="M424.717,130.421c2.796-5.342,4.354-11.517,4.354-18.064c0-9.945-3.75-19.514-10.289-26.253
		c-44.496-45.857-102.091-71.202-162.174-71.366c-0.196,0-0.382-0.001-0.578-0.001c-60.434,0-118.249,25.338-162.842,71.388
		c-3.306,3.421-5.879,7.489-7.644,12.078c-1.736,4.495-2.616,9.256-2.616,14.151c0,6.548,1.558,12.724,4.356,18.066
		c3.247,6.2,8.173,11.263,14.313,14.459c0.901,0.469,1.819,0.91,2.771,1.295c11.69,4.743,24.606,1.863,33.71-7.512
		C170.606,105.156,212.485,86.704,256,86.704c43.518,0,85.397,18.453,117.924,51.958c6.203,6.39,14.177,9.763,22.327,9.763
		c3.81,0,7.657-0.737,11.38-2.247c0.953-0.386,1.873-0.828,2.774-1.297C416.545,141.685,421.471,136.622,424.717,130.421z"/><path fill="#636677" d="M422.846,410.544c0,22.688-18.427,41.146-41.077,41.146H315.82c0.814,2.949,1.258,6.05,1.258,9.255v1.49
		c0,3.205-0.444,6.306-1.258,9.255h65.949c33.678,0,61.077-27.431,61.077-61.146V364.8c-6.089,4.26-12.812,7.643-20,9.967V410.544z"/><path fill="#ebe287" d="M317.078,460.945c0-3.205-0.444-6.306-1.258-9.255c-4.065-14.725-17.57-25.573-33.57-25.573h-26.961
		c-19.204,0-34.828,15.624-34.828,34.828v1.49c0,19.204,15.624,34.828,34.828,34.828h26.961c16,0,29.505-10.849,33.57-25.573
		c0.814-2.949,1.258-6.05,1.258-9.255V460.945z"/><path fill="#988fc4" d="M36.521 293.5c-.246 2.525-.378 5.085-.378 7.675 0 39.294 29.053 71.803 66.481 76.588-.296-1.674-.459-3.392-.459-5.15V229.736c0-1.757.163-3.476.459-5.149-16.335 2.088-31.066 9.452-42.49 20.366C47.108 257.398 38.382 274.434 36.521 293.5zM451.866 244.953c-11.424-10.914-26.156-18.278-42.49-20.366.296 1.673.459 3.392.459 5.149v142.877c0 1.757-.163 3.476-.459 5.15 4.63-.592 9.135-1.594 13.47-2.995 7.188-2.324 13.911-5.708 20-9.967 19.92-13.937 33.012-37.253 33.012-63.625 0-2.59-.131-5.149-.378-7.675C473.619 274.434 464.893 257.398 451.866 244.953z"/><path fill="#636677" d="M102.165 372.613c0 1.757.163 3.476.459 5.15 2.444 13.82 14.533 24.353 29.044 24.353h1.828c16.268 0 29.503-13.235 29.503-29.503V229.736c0-16.268-13.235-29.503-29.503-29.503h-1.828c-14.511 0-26.6 10.533-29.044 24.354-.296 1.673-.459 3.392-.459 5.149V372.613zM409.835 229.736c0-1.757-.163-3.476-.459-5.149-2.444-13.82-14.533-24.354-29.044-24.354h-1.828c-16.268 0-29.503 13.235-29.503 29.503v142.877c0 16.268 13.235 29.503 29.503 29.503h1.828c14.51 0 26.599-10.533 29.044-24.353.296-1.674.459-3.392.459-5.15V229.736z"/><path fill="#f5f5fc" d="M244.819,374.983c2.13,4.262,6.414,6.91,11.178,6.911c0.001,0,0.001,0,0.003,0
		c4.764,0,9.048-2.646,11.181-6.91l10-19.999h36.079c16.04,0,29.09-13.05,29.09-29.09v-76.351c0-16.04-13.05-29.09-29.09-29.09
		H198.74c-16.041,0-29.09,13.05-29.09,29.09v76.351c0,16.04,13.05,29.09,29.09,29.09h36.08L244.819,374.983z M233.018,287.72
		c0,5.522-4.477,10-10,10s-10.005-4.478-10.005-10s4.472-10,9.995-10h0.01C228.541,277.72,233.018,282.197,233.018,287.72z
		 M289.021,297.72c-5.522,0-10.005-4.478-10.005-10s4.473-10,9.995-10h0.01c5.523,0,10,4.478,10,10S294.545,297.72,289.021,297.72z
		 M256.02,297.72c-5.523,0-10.005-4.478-10.005-10s4.472-10,9.995-10h0.01c5.523,0,10,4.478,10,10S261.543,297.72,256.02,297.72z"/><path fill="#de8bae" d="M256.02 277.72h-.01c-5.522 0-9.995 4.478-9.995 10s4.482 10 10.005 10 10-4.478 10-10S261.543 277.72 256.02 277.72zM289.021 277.72h-.01c-5.522 0-9.995 4.478-9.995 10s4.482 10 10.005 10c5.523 0 10-4.478 10-10S294.545 277.72 289.021 277.72zM223.007 277.72c-5.522 0-9.995 4.478-9.995 10s4.482 10 10.005 10 10-4.478 10-10-4.477-10-10-10H223.007z"/></svg>